<svg width="40" height="46" viewBox="0 0 40 46" fill="none" xmlns="http://www.w3.org/2000/svg">
<rect y="3" width="40" height="39" rx="7" fill="black"/>
<path d="M5.07405 9.01718C5.06174 9.03552 6.05864 10.3861 7.28323 12.0116C8.50781 13.6372 11.1108 17.0961 13.0677 19.6933L16.6245 24.4172L16.3968 24.6739C16.2676 24.8144 13.6523 27.6194 10.5877 30.9072C7.52322 34.2011 5.00636 36.9144 5.00021 36.945C4.9879 36.9755 5.52327 37 6.29248 36.9939L7.60321 36.9878L8.03397 36.5172C8.27397 36.2606 10.5016 33.8711 12.9877 31.2006C15.4738 28.53 17.5783 26.2689 17.6645 26.1711L17.8183 25.9939L19.0491 27.6317C19.726 28.53 21.5905 31.0111 23.1905 33.1378L26.1073 37H30.5688C34.2794 37 35.024 36.9878 34.9994 36.9205C34.9809 36.8717 33.8487 35.3561 32.4826 33.5411C31.1164 31.7322 29.5534 29.6545 29.0119 28.9333C28.4642 28.2122 26.8581 26.0672 25.4304 24.1788C24.0028 22.2844 22.8336 20.7077 22.8336 20.6833C22.8336 20.6405 30.378 12.5066 32.9441 9.78718L33.6764 9.01107H32.3287L30.9872 9.01718L29.418 10.7039C28.5565 11.6327 26.4458 13.9061 24.7228 15.7455L21.6029 19.0944L17.8183 14.0711L14.0277 9.04163L9.56624 9.01107C7.11092 8.99274 5.08636 8.99885 5.07405 9.01718ZM15.6461 14.4316C17.1045 16.375 19.3568 19.3633 20.649 21.0806C21.9413 22.7917 24.8089 26.605 27.0242 29.5445C29.2396 32.49 31.0734 34.9283 31.1041 34.9711C31.1411 35.0261 30.7042 35.0444 29.1103 35.0444H27.0735L23.0366 29.6789C13.72 17.3161 9.01856 11.0705 8.96318 10.9789C8.92626 10.9238 9.34471 10.9055 10.9508 10.9055H12.9877L15.6461 14.4316Z" fill="white"/>
</svg>
