<?xml version="1.0" encoding="utf-8"?>
<!-- Generator: Adobe Illustrator 16.0.0, SVG Export Plug-In . SVG Version: 6.00 Build 0)  -->
<!DOCTYPE svg PUBLIC "-//W3C//DTD SVG 1.1//EN" "http://www.w3.org/Graphics/SVG/1.1/DTD/svg11.dtd">
<svg version="1.1" id="Layer_1" xmlns="http://www.w3.org/2000/svg" xmlns:xlink="http://www.w3.org/1999/xlink" x="0px" y="0px"
	 width="545.527px" height="83.529px" viewBox="17.939 17.566 545.527 83.529"
	 enable-background="new 17.939 17.566 545.527 83.529" xml:space="preserve">
<g>
	<g>
		<path fill="none" d="M127.894,63.805c0.279,6.62,4.102,11.003,10.814,11.003c3.822,0,7.551-1.773,9.043-5.314h13.312v-5.688
			H127.894z"/>
		<path fill="none" d="M138.148,45.068c-5.593,0-9.321,4.008-10.254,9.881h19.671C147.284,49.543,143.462,45.068,138.148,45.068z"/>
		<path fill="none" d="M230.029,65.018c-7.751-1.957-17.021-2.563-20.768-8.862v12.032h12.564c0,2.423,1.025,4.194,2.61,5.405
			c1.49,1.119,3.637,1.68,5.872,1.68c3.079,0,7.459-1.305,7.459-5.129C237.766,66.417,232.826,65.669,230.029,65.018z"/>
		<path fill="none" d="M237.299,50.008c0-2.051-0.745-3.355-2.05-4.196c-1.306-0.838-3.077-1.209-5.035-1.209
			c-2.609,0-6.804,0.279-6.804,3.635c0,4.566,10.627,5.406,17.897,6.992c4.441,0.887,7.375,2.833,9.267,5.068V50.008H237.299z"/>
		<path fill="none" d="M58.503,38.41c0-2.72-0.989-4.451-2.72-5.565c-1.731-1.114-4.081-1.607-6.678-1.607
			c-3.463,0-9.027,0.369-9.027,4.823c0,6.059,14.096,7.172,23.743,9.273c5.117,1.025,8.73,3.105,11.238,5.575L70.892,38.41H58.503z"
			/>
		<path fill="none" d="M381.775,63.082c-3.542,0.836-6.527,2.328-6.527,6.15c0,3.916,3.078,5.501,6.62,5.501
			c7.549,0,10.066-4.29,9.699-14.265C389.324,61.869,385.224,62.146,381.775,63.082z"/>
		<path fill="none" d="M428.294,46.467c-6.994,0-9.234,6.151-9.234,12.117c0,5.69,2.614,11.375,9.138,11.375
			c6.714,0,9.605-5.221,9.605-11.281C437.803,52.526,435.375,46.467,428.294,46.467z"/>
		<path fill="none" d="M384.103,44.603c-4.378,0-7.178,1.957-7.923,6.059h-14.577v12.136c4.981-7.296,17.349-6.938,25.949-8.688
			c2.707-0.561,4.195-1.493,4.195-4.476C391.748,46,387.367,44.603,384.103,44.603z"/>
		<path fill="none" d="M316.426,63.082c-3.543,0.836-6.521,2.328-6.521,6.15c0,3.916,3.072,5.501,6.614,5.501
			c7.55,0,10.065-4.29,9.694-14.265C323.977,61.869,319.877,62.146,316.426,63.082z"/>
		<path fill="#47AAE0" d="M318.942,34.347c-5.499,0-11.09,0.934-15.376,3.357c-4.288,2.516-7.272,6.618-7.552,12.958h14.821
			c0.745-4.102,3.54-6.059,7.92-6.059c3.264,0,7.646,1.397,7.646,5.033c0,2.983-1.49,3.915-4.195,4.476
			c-10.998,2.236-28.15,1.025-28.15,16.779c0,0.887,0.078,1.705,0.188,2.485l-11.209-19.357l16.202-18.274h-18.364l-14.45,16.129
			V17.566h-15.848v26.306c-3.357-7.498-12.291-9.525-20.918-9.525c-8.202,0-18.687,2.365-21.414,10.491
			c-1.644-5.444-5.846-10.491-16.415-10.491c-5.78,0-12.306,3.076-15.195,8.018h-0.188v-6.621h-15.381v13.187
			c-3.623-8.757-11.332-14.584-22.915-14.584c-7.99,0-15.218,3.337-20.032,8.878l2.507-7.48h-16.127l-8.95,31.977h-0.186
			l-8.856-31.977h-8.844c-2.126-14.465-15.985-18.11-29.299-18.11c-12.613,0-29.309,4.203-29.309,19.664
			c0,17.312,16.571,17.683,29.805,21.023c3.708,0.864,10.265,1.854,10.265,6.799c0,5.07-5.813,6.803-9.896,6.803
			c-2.966,0-5.812-0.739-7.791-2.227c-2.101-1.605-3.461-3.959-3.461-7.172H17.939C18.56,80.457,34.14,85.527,49.352,85.527
			c13.594,0,28.825-5.021,30.616-19.89l6.164,18.491h18.271l7.674-22.892c0.62,15.343,11.164,24.289,26.446,24.289
			c9.396,0,18.434-3.666,22.541-11.965v10.565h15.848V57.748c0-5.313,2.611-10.35,8.577-10.35c8.67,0,7.923,6.713,7.923,13.333
			v23.397h15.85v-7.133c4.139,6.461,12.713,8.531,21.142,8.531c7.585,0,15.843-2.078,20.172-7.701v6.303h15.848V68.653l4.102-4.008
			l10.835,19.483h19.111l-1.705-2.941c2.98,2.105,7.135,2.939,11.793,2.939c5.772,0,11.833-0.277,15.937-4.566v4.568h15.009
			c0,0,0-8.297,0-12.398V50.568C341.502,36.865,330.412,34.347,318.942,34.347z M63.82,45.333
			c-9.646-2.101-23.743-3.215-23.743-9.273c0-4.454,5.564-4.823,9.027-4.823c2.597,0,4.947,0.494,6.678,1.607
			c1.731,1.114,2.72,2.845,2.72,5.565h12.389l4.167,12.499C72.55,48.438,68.937,46.358,63.82,45.333z M138.148,45.068
			c5.314,0,9.136,4.475,9.417,9.881h-19.671C128.827,49.076,132.555,45.068,138.148,45.068z M147.751,69.494
			c-1.492,3.541-5.221,5.314-9.043,5.314c-6.712,0-10.535-4.383-10.814-11.003h33.169v5.688H147.751z M230.307,75.273
			c-2.235,0-4.381-0.561-5.872-1.68c-1.585-1.211-2.61-2.982-2.61-5.405h-12.564V56.156c3.748,6.298,13.017,6.905,20.768,8.862
			c2.797,0.651,7.737,1.399,7.737,5.126C237.766,73.968,233.386,75.273,230.307,75.273z M241.308,55.23
			c-7.27-1.586-17.897-2.426-17.897-6.992c0-3.356,4.195-3.635,6.804-3.635c1.958,0,3.729,0.372,5.035,1.209
			c1.305,0.84,2.05,2.145,2.05,4.196h13.275v10.291C248.684,58.064,245.75,56.117,241.308,55.23z M316.521,74.733
			c-3.541,0-6.614-1.585-6.614-5.501c0-3.822,2.978-5.314,6.521-6.15c3.451-0.936,7.551-1.213,9.789-2.613
			C326.586,70.443,324.07,74.733,316.521,74.733z"/>
		<path fill="#47AAE0" d="M452.81,61.74V35.745h-15.197v6.06h-0.184c-2.798-4.94-7.183-7.458-12.96-7.458
			c-8.712,0-14.932,4.375-18.313,10.864c-2.592-9.029-12.088-10.864-21.867-10.864c-5.499,0-11.091,0.934-15.379,3.357
			c-3.735,2.19-6.477,5.585-7.308,10.61V17.566h-15.851v66.563h15.851V78.69c2.829,3.963,8.118,5.437,14.3,5.437
			c5.779,0,11.839-0.277,15.942-4.566l-0.005,4.568h15.012c0,0,0-6.797,0-11.129c3.372,5.584,9.152,9.082,17.617,9.082
			c5.128,0,9.976-2.613,12.864-7.09h0.186v4.567c0,5.967-0.744,11.28-8.296,11.28c-2.426,0-4.383-0.28-5.776-1.024
			c-1.493-0.746-2.334-2.054-2.707-4.194h-15.849c1.863,12.959,12.493,15.475,23.775,15.475c14.67,0,20.46-6.256,22.725-12.82
			c-3.651-3.045-5.982-7.623-5.982-12.736C445.408,69.787,448.354,64.714,452.81,61.74z M381.868,74.733
			c-3.542,0-6.62-1.585-6.62-5.501c0-3.822,2.985-5.314,6.527-6.15c3.448-0.936,7.549-1.213,9.792-2.613
			C391.935,70.443,389.417,74.733,381.868,74.733z M387.552,54.111c-8.602,1.749-20.968,1.39-25.949,8.688V50.662h14.577
			c0.745-4.102,3.545-6.059,7.923-6.059c3.265,0,7.646,1.397,7.646,5.033C391.748,52.619,390.259,53.551,387.552,54.111z
			 M428.197,69.958c-6.522,0-9.138-5.685-9.138-11.375c0-5.965,2.24-12.117,9.234-12.117c7.08,0,9.509,6.059,9.509,12.21
			C437.803,64.738,434.911,69.958,428.197,69.958z"/>
	</g>
	<g>
		<path fill="none" d="M538.217,45.068c-5.592,0-9.322,4.008-10.253,9.881h19.664C547.347,49.543,543.524,45.068,538.217,45.068z"/>
		<path fill="none" d="M514.012,50.008h-11.836c0-2.051-0.745-3.355-2.05-4.196c-1.302-0.838-3.078-1.209-5.032-1.209
			c-2.611,0-6.807,0.279-6.807,3.635c0,4.566,10.625,5.406,17.896,6.992c2.438,0.486,4.425,1.292,6.034,2.289
			C512.444,54.844,513.06,52.328,514.012,50.008z"/>
		<path fill="#F5CF3E" d="M538.217,34.347c-9.202,0-17.387,4.428-22.043,11.546c-2.572-9.159-12.286-11.546-21.643-11.546
			c-9.507,0-22.093,3.17-22.093,14.822c0,13.053,12.493,13.333,22.467,15.849c2.797,0.651,7.738,1.399,7.738,5.126
			c0,3.824-4.385,5.129-7.461,5.129c-2.234,0-4.38-0.561-5.873-1.68c-1.583-1.211-2.608-2.982-2.608-5.405h-9.864
			c1.104,2.216,1.736,4.708,1.736,7.351c0,1.853-0.319,3.625-0.879,5.291c4.567,3.482,11.117,4.697,17.585,4.697
			c8.467,0,17.779-2.588,21.521-9.813c4.588,6.332,12.266,9.813,21.789,9.813c10.808,0,21.156-4.846,24.049-16.033h-14.822
			c-1.491,3.541-5.223,5.314-9.035,5.314c-6.715,0-10.537-4.383-10.815-11.003h35.509C564.223,47.398,555.551,34.347,538.217,34.347
			z M488.288,48.238c0-3.356,4.194-3.635,6.807-3.635c1.954,0,3.73,0.372,5.032,1.209c1.305,0.84,2.05,2.145,2.05,4.196h11.836
			c-0.952,2.32-1.567,4.836-1.793,7.511c-1.609-0.997-3.596-1.803-6.034-2.289C498.913,53.645,488.288,52.804,488.288,48.238z
			 M527.964,54.949c0.932-5.873,4.661-9.881,10.253-9.881c5.308,0,9.13,4.475,9.411,9.881H527.964z"/>
		<path fill="#F5CF3E" d="M461.991,66.494c-4.983,0-9.041,4.059-9.041,9.045s4.058,9.039,9.041,9.039
			c4.989,0,9.044-4.053,9.044-9.039S466.979,66.494,461.991,66.494z"/>
	</g>
</g>
</svg>
